<?xml version="1.0" encoding="utf-8"?>
<svg viewBox="23.729 74.579 438.981 283.89" width="438.981" height="283.89" xmlns="http://www.w3.org/2000/svg">
  <path d="M 274.977 196.443 C 280.977 196.443 285.577 196.01 288.777 195.143 C 291.977 194.276 293.577 192.51 293.577 189.843 C 293.577 188.11 293.077 186.643 292.077 185.443 C 291.077 184.243 289.677 183.21 287.877 182.343 C 286.077 181.476 284.01 180.643 281.677 179.843 C 279.344 179.043 276.91 178.243 274.377 177.443 C 270.777 176.376 267.11 175.143 263.377 173.743 C 259.644 172.343 256.244 170.576 253.177 168.443 C 250.11 166.31 247.577 163.61 245.577 160.343 C 243.577 157.076 242.577 152.976 242.577 148.043 C 242.577 144.043 243.344 140.276 244.877 136.743 C 246.41 133.21 248.81 130.076 252.077 127.343 C 255.344 124.61 259.51 122.476 264.577 120.943 C 269.644 119.41 275.71 118.643 282.777 118.643 C 288.91 118.643 294.61 119.11 299.877 120.043 C 305.144 120.976 309.71 122.31 313.577 124.043 L 309.777 144.843 C 307.51 144.176 303.977 143.076 299.177 141.543 C 294.377 140.01 288.977 139.243 282.977 139.243 C 276.71 139.243 272.477 140.01 270.277 141.543 C 268.077 143.076 266.977 144.71 266.977 146.443 C 266.977 147.91 267.477 149.21 268.477 150.343 C 269.477 151.476 270.81 152.51 272.477 153.443 C 274.144 154.376 276.077 155.276 278.277 156.143 C 280.477 157.01 282.844 157.843 285.377 158.643 C 288.977 159.843 292.71 161.176 296.577 162.643 C 300.444 164.11 303.944 165.943 307.077 168.143 C 310.21 170.343 312.777 173.143 314.777 176.543 C 316.777 179.943 317.777 184.11 317.777 189.043 C 317.777 192.91 317.044 196.576 315.577 200.043 C 314.11 203.51 311.677 206.51 308.277 209.043 C 304.877 211.576 300.444 213.576 294.977 215.043 C 289.51 216.51 282.777 217.243 274.777 217.243 C 266.644 217.243 259.71 216.31 253.977 214.443 C 248.244 212.576 243.644 210.91 240.177 209.443 L 243.977 188.843 C 248.644 190.71 253.61 192.443 258.877 194.043 C 264.144 195.643 269.51 196.443 274.977 196.443 ZM 397.975 120.043 C 403.175 120.043 407.441 120.843 410.775 122.443 C 414.108 124.043 416.741 126.443 418.675 129.643 C 420.608 132.843 421.908 136.876 422.575 141.743 C 423.241 146.61 423.575 152.31 423.575 158.843 L 423.575 215.043 L 403.575 215.043 L 403.575 157.643 C 403.575 153.91 403.341 150.91 402.875 148.643 C 402.408 146.376 401.808 144.643 401.075 143.443 C 400.341 142.243 399.475 141.443 398.475 141.043 C 397.475 140.643 396.441 140.443 395.375 140.443 C 394.175 140.443 392.908 140.543 391.575 140.743 C 390.241 140.943 389.041 141.31 387.975 141.843 C 388.375 144.376 388.708 147.176 388.975 150.243 C 389.241 153.31 389.375 156.71 389.375 160.443 L 389.375 179.243 L 369.375 179.243 L 369.375 157.643 C 369.375 151.243 368.741 146.776 367.475 144.243 C 366.208 141.71 364.175 140.443 361.375 140.443 C 360.575 140.443 359.608 140.51 358.475 140.643 C 357.341 140.776 356.241 140.976 355.175 141.243 L 355.175 215.043 L 335.175 215.043 L 335.175 124.643 C 340.375 123.176 345.508 122.043 350.575 121.243 C 355.641 120.443 360.108 120.043 363.975 120.043 C 367.441 120.043 370.541 120.476 373.275 121.343 C 376.008 122.21 378.375 123.643 380.375 125.643 C 382.641 124.176 385.308 122.876 388.375 121.743 C 391.441 120.61 394.641 120.043 397.975 120.043 Z" transform="matrix(1, 0, 0, 1, 0, 0)" style="fill: rgb(51, 51, 51); white-space: pre;"/>
  <g transform="matrix(-0.109119, 0, 0, -0.109119, 221.96344, 313.347168)">
    <g id="g-1" transform="translate(-1718.3 339.07)">
      <g id="g3965" fill="none">
        <path id="path3849" d="m-1564.5 659.49a851.43 851.43 0 0 1 231.44 -778.14" stroke-width="103.66" stroke="#000" transform="matrix(.77173 0 0 .77173 3001.6 159.01)"/>
        <path id="path3051" d="m-1253.9-188.47a851.43 851.43 0 0 1 1056.3 8.9422" stroke-width="40" stroke="#808080" transform="translate(3168.6 48.571)"/>
        <path id="path3821" d="m24.711 92.404a851.43 851.43 0 0 1 -1131.4 1155.7" stroke-width="40" stroke="#808080" transform="translate(3168.6 48.571)"/>
        <path id="path3823" d="m-1493.4 103.89a851.43 851.43 0 0 1 1523.2 -1.47" stroke-width="32.973" stroke="#000" transform="matrix(.90983 0 0 .90983 3102.6 92.194)"/>
        <path id="path3825" d="m119.37 451.03a851.43 851.43 0 0 1 -1073.4 854.57" stroke-width="32.973" stroke="#000" transform="matrix(.90983 0 0 .90983 3102.6 92.194)"/>
        <path id="path3829" stroke-width="103.66" d="m-1041.1-309.31a851.43 851.43 0 0 1 962.53 246.56" stroke="#000" transform="matrix(.77173 0 0 .77173 3001.6 159.01)"/>
        <path id="path3835" d="m120 483.79a851.43 851.43 0 1 1 -1702.9 0 851.43 851.43 0 1 1 1702.9 0z" stroke-width="97.094" stroke="#000" transform="matrix(.72093 0 0 .72098 2964.4 184.4)"/>
        <path id="path3837" stroke-width="78.207" d="m-1311.5-139.45a851.43 851.43 0 0 1 175.37 -125.85" stroke="#808080" transform="matrix(.63933 0 0 .63933 2904.8 223.06)"/>
        <path id="path3839" d="m119.38 451.26a851.43 851.43 0 0 1 -1520.4 558.54" stroke-width="16.068" stroke="#000" transform="matrix(.93356 0 0 .93356 3120 80.714)"/>
        <path id="path3843" d="m-1216.9 1183.2a851.43 851.43 0 0 1 -184.08 -173.51" stroke-width="32.973" stroke="#000" transform="matrix(.90983 0 0 .90983 3102.6 92.194)"/>
        <path id="path3845" d="m-1493.4 103.82a851.43 851.43 0 0 1 1524 0.15" stroke-width="16.068" stroke="#000" transform="matrix(.93356 0 0 .93356 3120 80.714)"/>
        <path id="path3851" stroke-width="103.66" d="m-403.01 1269.3a851.43 851.43 0 0 1 -836.29 -102.2" stroke="#000" transform="matrix(.77173 0 0 .77173 3001.6 159.01)"/>
        <path id="path3853" d="m109.12 619.5a851.43 851.43 0 0 1 -240.61 468.5" stroke-width="103.66" stroke="#000" transform="matrix(.77173 0 0 .77173 3001.6 159.01)"/>
        <path id="path3855" d="m-659.82-364.62a851.43 851.43 0 0 1 447.56 173.58" stroke-width="78.207" stroke="#808080" transform="matrix(.63933 0 0 .63933 2904.8 223.06)"/>
        <path id="path3857" stroke-width="78.207" d="m110.93 607.71a851.43 851.43 0 0 1 -252.34 489.89" stroke="#808080" transform="matrix(.63933 0 0 .63933 2904.8 223.06)"/>
        <path id="path3859" d="m-1130.2 1236.1a851.43 851.43 0 0 1 -315 -288.15" stroke-width="78.207" stroke="#808080" transform="matrix(.63933 0 0 .63933 2904.8 223.06)"/>
        <path id="path3861" stroke-width="30.272" d="m110.89 608.03a851.43 851.43 0 0 1 -1556 340.17" stroke="#808080" transform="matrix(.66068 0 0 .66068 2920.4 212.73)"/>
        <path id="path3863" d="m-265.86-229.07a851.43 851.43 0 0 1 124.2 1327" stroke-width="66.254" stroke="#808080" transform="matrix(.60374 0 0 .60374 2878.7 240.28)"/>
        <path id="path3865" d="m-1311.9-139.11a851.43 851.43 0 0 1 762.73 -208.79" stroke-width="66.254" stroke="#808080" transform="matrix(.60374 0 0 .60374 2878.7 240.28)"/>
        <path id="path3867" d="m85.89 722.37a851.43 851.43 0 0 1 -1652.7 -403.3" stroke-width="63.714" stroke="#000" transform="matrix(.47086 0 0 .47086 2781.5 304.57)"/>
        <path id="path3869" d="m-1348.5-102.81a851.43 851.43 0 0 1 1468.4 599.36" stroke-width="63.714" style="stroke: rgb(244, 0, 0);" transform="matrix(.47086 0 0 .47086 2781.5 304.57)"/>
        <path id="path3871" d="m-1581.8 526.54a851.43 851.43 0 1 1 1450.1 561.56" stroke-width="68.55" style="stroke: rgb(160, 29, 29);" transform="matrix(.43764 0 0 .43764 2757.2 320.64)"/>
        <path id="path3873" stroke-width="118.79" d="m-1233.3-204.01a851.43 851.43 0 1 1 822.92 1476.4" stroke="#808080" transform="matrix(.25255 0 0 .25255 2621.9 410.18)"/>
        <path id="path3875" d="m-1152 1224.1a851.43 851.43 0 0 1 -401.17 -963.09" stroke-width="118.79" stroke="#808080" transform="matrix(.25255 0 0 .25255 2621.9 410.18)"/>
        <path id="path3877" stroke-width="65.484" d="m-1233.7-203.7a851.43 851.43 0 1 1 -319.25 463.85" stroke="#808080" transform="matrix(.22906 0 0 .22906 2604.7 421.54)"/>
        <path id="path3879" d="m-1223.1-211.32a851.43 851.43 0 0 1 743.7 -118.16" stroke-width="174.04" stroke="#000" transform="matrix(.14364 0 0 .14364 2542.2 462.87)"/>
        <path id="path3883" d="m-42.261-16.187a851.43 851.43 0 0 1 -49.751 1062.2" stroke-width="174.04" stroke="#000" transform="matrix(.14364 0 0 .14364 2542.2 462.87)"/>
        <path id="path3885" d="m-594.81 1324.2a851.43 851.43 0 0 1 -798.99 -305.4" stroke-width="174.04" stroke="#000" transform="matrix(.14364 0 0 .14364 2542.2 462.87)"/>
        <path id="path3887" d="m-1569.9 631.64a851.43 851.43 0 0 1 64.086 -501.72" stroke-width="174.04" stroke="#000" transform="matrix(.14364 0 0 .14364 2542.2 462.87)"/>
        <path id="path3889" d="m-1570.1 630.43a851.43 851.43 0 0 1 1089 -960.44" stroke-width="90.91" stroke="#000" transform="matrix(.165 0 0 .165 2557.8 452.54)"/>
        <path id="path3891" stroke-width="114.12" d="m-1223.8-210.86a851.43 851.43 0 0 1 1131.2 1257.6" stroke="#000" transform="matrix(.13144 0 0 .13144 2533.3 468.77)"/>
        <path id="path3847" d="m120 483.79a851.43 851.43 0 1 1 -1702.9 0 851.43 851.43 0 1 1 1702.9 0z" stroke-width="12.793" stroke="#808080" transform="matrix(.78170 0 0 .78170 3008.9 154.18)"/>
        <path id="path3959" d="m-402.23 1269a851.43 851.43 0 0 1 -693.46 -15.645" stroke-width="19.524" stroke="#808080" transform="matrix(.76828 0 0 .76828 2999.1 160.68)"/>
        <path id="path3961" d="m-1.5623 45.355a851.43 851.43 0 0 1 120.27 485.32" stroke-width="19.524" stroke="#808080" transform="matrix(.76828 0 0 .76828 2999.1 160.68)"/>
        <path id="path3963" d="m-1582.3 515.87a851.43 851.43 0 0 1 169.11 -542.17" stroke-width="19.524" stroke="#808080" transform="matrix(.76828 0 0 .76828 2999.1 160.68)"/>
      </g>
    </g>
  </g>
  <path d="M 173.703 276.727 L 173.703 280.177 L 178.413 280.177 L 178.413 281.837 L 173.703 281.837 L 173.703 287.017 C 173.703 287.577 173.743 288.034 173.823 288.387 C 173.903 288.74 174.036 289.024 174.223 289.237 C 174.403 289.457 174.639 289.607 174.933 289.687 C 175.219 289.767 175.569 289.807 175.983 289.807 C 176.563 289.807 177.026 289.757 177.373 289.657 C 177.726 289.564 178.063 289.437 178.383 289.277 L 178.673 290.957 C 178.446 291.05 178.089 291.177 177.603 291.337 C 177.116 291.497 176.513 291.577 175.793 291.577 C 174.959 291.577 174.279 291.484 173.753 291.297 C 173.226 291.104 172.813 290.814 172.513 290.427 C 172.219 290.047 172.016 289.57 171.903 288.997 C 171.789 288.43 171.733 287.77 171.733 287.017 L 171.733 281.837 L 169.383 281.837 L 169.383 280.177 L 171.733 280.177 L 171.733 277.057 L 173.703 276.727 ZM 183.571 291.317 L 181.571 291.317 L 181.571 275.017 L 183.571 274.687 L 183.571 280.347 C 183.891 280.22 184.251 280.12 184.651 280.047 C 185.051 279.974 185.441 279.937 185.821 279.937 C 186.667 279.937 187.377 280.064 187.951 280.317 C 188.517 280.564 188.967 280.91 189.301 281.357 C 189.641 281.804 189.881 282.34 190.021 282.967 C 190.167 283.587 190.241 284.274 190.241 285.027 L 190.241 291.317 L 188.271 291.317 L 188.271 285.457 C 188.271 284.084 188.077 283.114 187.691 282.547 C 187.311 281.98 186.624 281.697 185.631 281.697 C 185.217 281.697 184.814 281.74 184.421 281.827 C 184.027 281.914 183.744 281.997 183.571 282.077 L 183.571 291.317 ZM 198.089 279.917 C 199.589 279.917 200.749 280.384 201.569 281.317 C 202.382 282.257 202.789 283.677 202.789 285.577 L 202.789 286.277 L 194.819 286.277 C 194.899 287.43 195.279 288.307 195.959 288.907 C 196.639 289.507 197.596 289.807 198.829 289.807 C 199.536 289.807 200.136 289.75 200.629 289.637 C 201.122 289.524 201.499 289.404 201.759 289.277 L 202.019 290.957 C 201.779 291.084 201.349 291.22 200.729 291.367 C 200.102 291.507 199.396 291.577 198.609 291.577 C 197.649 291.577 196.806 291.43 196.079 291.137 C 195.352 290.844 194.749 290.44 194.269 289.927 C 193.789 289.414 193.429 288.8 193.189 288.087 C 192.949 287.374 192.829 286.604 192.829 285.777 C 192.829 284.784 192.982 283.917 193.289 283.177 C 193.589 282.444 193.989 281.837 194.489 281.357 C 194.982 280.877 195.542 280.517 196.169 280.277 C 196.789 280.037 197.429 279.917 198.089 279.917 Z M 194.869 284.667 L 200.769 284.667 C 200.769 283.727 200.522 282.98 200.029 282.427 C 199.536 281.874 198.879 281.597 198.059 281.597 C 197.599 281.597 197.179 281.684 196.799 281.857 C 196.426 282.037 196.102 282.27 195.829 282.557 C 195.556 282.844 195.339 283.17 195.179 283.537 C 195.019 283.91 194.916 284.287 194.869 284.667 ZM 224.285 288.537 C 224.285 288.137 224.122 287.807 223.795 287.547 C 223.469 287.294 223.062 287.07 222.575 286.877 C 222.089 286.684 221.555 286.497 220.975 286.317 C 220.402 286.13 219.872 285.9 219.385 285.627 C 218.892 285.354 218.482 285.017 218.155 284.617 C 217.829 284.217 217.665 283.697 217.665 283.057 C 217.665 282.164 218.029 281.417 218.755 280.817 C 219.482 280.217 220.622 279.917 222.175 279.917 C 222.782 279.917 223.412 279.96 224.065 280.047 C 224.712 280.134 225.265 280.25 225.725 280.397 L 225.365 282.177 C 225.239 282.11 225.065 282.04 224.845 281.967 C 224.619 281.894 224.362 281.83 224.075 281.777 C 223.789 281.724 223.479 281.68 223.145 281.647 C 222.819 281.614 222.505 281.597 222.205 281.597 C 220.472 281.597 219.605 282.07 219.605 283.017 C 219.605 283.35 219.772 283.634 220.105 283.867 C 220.432 284.1 220.842 284.31 221.335 284.497 C 221.835 284.69 222.372 284.887 222.945 285.087 C 223.519 285.287 224.055 285.53 224.555 285.817 C 225.049 286.11 225.459 286.46 225.785 286.867 C 226.119 287.274 226.285 287.79 226.285 288.417 C 226.285 289.424 225.892 290.204 225.105 290.757 C 224.319 291.304 223.079 291.577 221.385 291.577 C 220.619 291.577 219.915 291.514 219.275 291.387 C 218.635 291.26 218.025 291.07 217.445 290.817 L 217.835 289.017 C 218.395 289.27 218.982 289.48 219.595 289.647 C 220.215 289.814 220.875 289.897 221.575 289.897 C 223.382 289.897 224.285 289.444 224.285 288.537 ZM 233.693 276.727 L 233.693 280.177 L 238.403 280.177 L 238.403 281.837 L 233.693 281.837 L 233.693 287.017 C 233.693 287.577 233.733 288.034 233.813 288.387 C 233.893 288.74 234.027 289.024 234.213 289.237 C 234.393 289.457 234.63 289.607 234.923 289.687 C 235.21 289.767 235.56 289.807 235.973 289.807 C 236.553 289.807 237.017 289.757 237.363 289.657 C 237.717 289.564 238.053 289.437 238.373 289.277 L 238.663 290.957 C 238.437 291.05 238.08 291.177 237.593 291.337 C 237.107 291.497 236.503 291.577 235.783 291.577 C 234.95 291.577 234.27 291.484 233.743 291.297 C 233.217 291.104 232.803 290.814 232.503 290.427 C 232.21 290.047 232.007 289.57 231.893 288.997 C 231.78 288.43 231.723 287.77 231.723 287.017 L 231.723 281.837 L 229.373 281.837 L 229.373 280.177 L 231.723 280.177 L 231.723 277.057 L 233.693 276.727 ZM 245.981 289.897 C 246.475 289.897 246.918 289.884 247.311 289.857 C 247.705 289.824 248.028 289.784 248.281 289.737 L 248.281 286.417 C 248.028 286.337 247.721 286.274 247.361 286.227 C 247.001 286.18 246.621 286.157 246.221 286.157 C 245.855 286.157 245.495 286.184 245.141 286.237 C 244.788 286.297 244.475 286.397 244.201 286.537 C 243.935 286.684 243.711 286.874 243.531 287.107 C 243.358 287.34 243.271 287.63 243.271 287.977 C 243.271 288.697 243.515 289.197 244.001 289.477 C 244.488 289.757 245.148 289.897 245.981 289.897 Z M 245.791 279.917 C 246.625 279.917 247.325 280.02 247.891 280.227 C 248.458 280.434 248.918 280.724 249.271 281.097 C 249.625 281.464 249.871 281.91 250.011 282.437 C 250.158 282.964 250.231 283.54 250.231 284.167 L 250.231 291.127 C 249.765 291.207 249.151 291.304 248.391 291.417 C 247.631 291.524 246.851 291.577 246.051 291.577 C 245.445 291.577 244.855 291.527 244.281 291.427 C 243.701 291.32 243.188 291.137 242.741 290.877 C 242.295 290.61 241.935 290.244 241.661 289.777 C 241.388 289.317 241.251 288.727 241.251 288.007 C 241.251 287.367 241.391 286.827 241.671 286.387 C 241.951 285.947 242.311 285.59 242.751 285.317 C 243.191 285.044 243.695 284.847 244.261 284.727 C 244.835 284.607 245.408 284.547 245.981 284.547 C 246.768 284.547 247.535 284.637 248.281 284.817 L 248.281 284.257 C 248.281 283.924 248.248 283.6 248.181 283.287 C 248.108 282.974 247.971 282.69 247.771 282.437 C 247.571 282.184 247.298 281.98 246.951 281.827 C 246.611 281.674 246.168 281.597 245.621 281.597 C 244.935 281.597 244.335 281.644 243.821 281.737 C 243.308 281.837 242.915 281.934 242.641 282.027 L 242.401 280.397 C 242.675 280.27 243.128 280.157 243.761 280.057 C 244.395 279.964 245.071 279.917 245.791 279.917 ZM 257.69 276.727 L 257.69 280.177 L 262.4 280.177 L 262.4 281.837 L 257.69 281.837 L 257.69 287.017 C 257.69 287.577 257.73 288.034 257.81 288.387 C 257.89 288.74 258.023 289.024 258.21 289.237 C 258.39 289.457 258.626 289.607 258.92 289.687 C 259.206 289.767 259.556 289.807 259.97 289.807 C 260.55 289.807 261.013 289.757 261.36 289.657 C 261.713 289.564 262.05 289.437 262.37 289.277 L 262.66 290.957 C 262.433 291.05 262.076 291.177 261.59 291.337 C 261.103 291.497 260.5 291.577 259.78 291.577 C 258.946 291.577 258.266 291.484 257.74 291.297 C 257.213 291.104 256.8 290.814 256.5 290.427 C 256.206 290.047 256.003 289.57 255.89 288.997 C 255.776 288.43 255.72 287.77 255.72 287.017 L 255.72 281.837 L 253.37 281.837 L 253.37 280.177 L 255.72 280.177 L 255.72 277.057 L 257.69 276.727 ZM 268.878 278.457 C 268.458 278.457 268.098 278.31 267.798 278.017 C 267.491 277.73 267.338 277.34 267.338 276.847 C 267.338 276.347 267.491 275.954 267.798 275.667 C 268.098 275.38 268.458 275.237 268.878 275.237 C 269.304 275.237 269.668 275.38 269.968 275.667 C 270.261 275.954 270.408 276.347 270.408 276.847 C 270.408 277.34 270.261 277.73 269.968 278.017 C 269.668 278.31 269.304 278.457 268.878 278.457 Z M 268.368 287.017 L 268.368 281.837 L 265.158 281.837 L 265.158 280.177 L 270.338 280.177 L 270.338 287.017 C 270.338 288.124 270.491 288.864 270.798 289.237 C 271.098 289.617 271.551 289.807 272.158 289.807 C 272.624 289.807 273.054 289.75 273.448 289.637 C 273.841 289.524 274.148 289.404 274.368 289.277 L 274.658 290.957 C 274.564 291.004 274.428 291.064 274.248 291.137 C 274.074 291.21 273.871 291.277 273.638 291.337 C 273.404 291.404 273.148 291.46 272.868 291.507 C 272.588 291.554 272.298 291.577 271.998 291.577 C 271.291 291.577 270.704 291.484 270.238 291.297 C 269.778 291.104 269.408 290.814 269.128 290.427 C 268.848 290.047 268.651 289.57 268.538 288.997 C 268.424 288.43 268.368 287.77 268.368 287.017 ZM 277.036 285.777 C 277.036 284.764 277.196 283.89 277.516 283.157 C 277.836 282.424 278.276 281.817 278.836 281.337 C 279.396 280.857 280.046 280.5 280.786 280.267 C 281.533 280.034 282.329 279.917 283.176 279.917 C 283.723 279.917 284.263 279.954 284.796 280.027 C 285.329 280.1 285.903 280.23 286.516 280.417 L 286.056 282.127 C 285.529 281.934 285.046 281.81 284.606 281.757 C 284.166 281.697 283.723 281.667 283.276 281.667 C 282.696 281.667 282.149 281.744 281.636 281.897 C 281.129 282.05 280.686 282.29 280.306 282.617 C 279.933 282.944 279.633 283.367 279.406 283.887 C 279.186 284.407 279.076 285.037 279.076 285.777 C 279.076 286.477 279.179 287.08 279.386 287.587 C 279.593 288.087 279.883 288.504 280.256 288.837 C 280.636 289.164 281.089 289.407 281.616 289.567 C 282.143 289.727 282.726 289.807 283.366 289.807 C 283.879 289.807 284.373 289.777 284.846 289.717 C 285.319 289.664 285.836 289.54 286.396 289.347 L 286.676 291.007 C 286.116 291.214 285.549 291.36 284.976 291.447 C 284.403 291.534 283.779 291.577 283.106 291.577 C 282.206 291.577 281.386 291.454 280.646 291.207 C 279.899 290.96 279.259 290.597 278.726 290.117 C 278.186 289.637 277.769 289.034 277.476 288.307 C 277.183 287.58 277.036 286.737 277.036 285.777 Z" transform="matrix(1, 0, 0, 1, 134.75100708007812, -41.527042388916016)" style="fill: rgb(51, 51, 51); white-space: pre;"/>
  <path d="M 140.298 312.537 C 140.298 312.137 140.135 311.807 139.808 311.547 C 139.482 311.294 139.075 311.07 138.588 310.877 C 138.102 310.684 137.568 310.497 136.988 310.317 C 136.415 310.13 135.885 309.9 135.398 309.627 C 134.905 309.354 134.495 309.017 134.168 308.617 C 133.842 308.217 133.678 307.697 133.678 307.057 C 133.678 306.164 134.042 305.417 134.768 304.817 C 135.495 304.217 136.635 303.917 138.188 303.917 C 138.795 303.917 139.425 303.96 140.078 304.047 C 140.725 304.134 141.278 304.25 141.738 304.397 L 141.378 306.177 C 141.252 306.11 141.078 306.04 140.858 305.967 C 140.632 305.894 140.375 305.83 140.088 305.777 C 139.802 305.724 139.492 305.68 139.158 305.647 C 138.832 305.614 138.518 305.597 138.218 305.597 C 136.485 305.597 135.618 306.07 135.618 307.017 C 135.618 307.35 135.785 307.634 136.118 307.867 C 136.445 308.1 136.855 308.31 137.348 308.497 C 137.848 308.69 138.385 308.887 138.958 309.087 C 139.532 309.287 140.068 309.53 140.568 309.817 C 141.062 310.11 141.472 310.46 141.798 310.867 C 142.132 311.274 142.298 311.79 142.298 312.417 C 142.298 313.424 141.905 314.204 141.118 314.757 C 140.332 315.304 139.092 315.577 137.398 315.577 C 136.632 315.577 135.928 315.514 135.288 315.387 C 134.648 315.26 134.038 315.07 133.458 314.817 L 133.848 313.017 C 134.408 313.27 134.995 313.48 135.608 313.647 C 136.228 313.814 136.888 313.897 137.588 313.897 C 139.395 313.897 140.298 313.444 140.298 312.537 ZM 149.706 300.727 L 149.706 304.177 L 154.416 304.177 L 154.416 305.837 L 149.706 305.837 L 149.706 311.017 C 149.706 311.577 149.746 312.034 149.826 312.387 C 149.906 312.74 150.04 313.024 150.226 313.237 C 150.406 313.457 150.643 313.607 150.936 313.687 C 151.223 313.767 151.573 313.807 151.986 313.807 C 152.566 313.807 153.03 313.757 153.376 313.657 C 153.73 313.564 154.066 313.437 154.386 313.277 L 154.676 314.957 C 154.45 315.05 154.093 315.177 153.606 315.337 C 153.12 315.497 152.516 315.577 151.796 315.577 C 150.963 315.577 150.283 315.484 149.756 315.297 C 149.23 315.104 148.816 314.814 148.516 314.427 C 148.223 314.047 148.02 313.57 147.906 312.997 C 147.793 312.43 147.736 311.77 147.736 311.017 L 147.736 305.837 L 145.386 305.837 L 145.386 304.177 L 147.736 304.177 L 147.736 301.057 L 149.706 300.727 ZM 161.995 313.897 C 162.488 313.897 162.931 313.884 163.325 313.857 C 163.718 313.824 164.041 313.784 164.295 313.737 L 164.295 310.417 C 164.041 310.337 163.735 310.274 163.375 310.227 C 163.015 310.18 162.635 310.157 162.235 310.157 C 161.868 310.157 161.508 310.184 161.155 310.237 C 160.801 310.297 160.488 310.397 160.215 310.537 C 159.948 310.684 159.725 310.874 159.545 311.107 C 159.371 311.34 159.285 311.63 159.285 311.977 C 159.285 312.697 159.528 313.197 160.015 313.477 C 160.501 313.757 161.161 313.897 161.995 313.897 Z M 161.805 303.917 C 162.638 303.917 163.338 304.02 163.905 304.227 C 164.471 304.434 164.931 304.724 165.285 305.097 C 165.638 305.464 165.885 305.91 166.025 306.437 C 166.171 306.964 166.245 307.54 166.245 308.167 L 166.245 315.127 C 165.778 315.207 165.165 315.304 164.405 315.417 C 163.645 315.524 162.865 315.577 162.065 315.577 C 161.458 315.577 160.868 315.527 160.295 315.427 C 159.715 315.32 159.201 315.137 158.755 314.877 C 158.308 314.61 157.948 314.244 157.675 313.777 C 157.401 313.317 157.265 312.727 157.265 312.007 C 157.265 311.367 157.405 310.827 157.685 310.387 C 157.965 309.947 158.325 309.59 158.765 309.317 C 159.205 309.044 159.708 308.847 160.275 308.727 C 160.848 308.607 161.421 308.547 161.995 308.547 C 162.781 308.547 163.548 308.637 164.295 308.817 L 164.295 308.257 C 164.295 307.924 164.261 307.6 164.195 307.287 C 164.121 306.974 163.985 306.69 163.785 306.437 C 163.585 306.184 163.311 305.98 162.965 305.827 C 162.625 305.674 162.181 305.597 161.635 305.597 C 160.948 305.597 160.348 305.644 159.835 305.737 C 159.321 305.837 158.928 305.934 158.655 306.027 L 158.415 304.397 C 158.688 304.27 159.141 304.157 159.775 304.057 C 160.408 303.964 161.085 303.917 161.805 303.917 ZM 173.703 300.727 L 173.703 304.177 L 178.413 304.177 L 178.413 305.837 L 173.703 305.837 L 173.703 311.017 C 173.703 311.577 173.743 312.034 173.823 312.387 C 173.903 312.74 174.036 313.024 174.223 313.237 C 174.403 313.457 174.639 313.607 174.933 313.687 C 175.219 313.767 175.569 313.807 175.983 313.807 C 176.563 313.807 177.026 313.757 177.373 313.657 C 177.726 313.564 178.063 313.437 178.383 313.277 L 178.673 314.957 C 178.446 315.05 178.089 315.177 177.603 315.337 C 177.116 315.497 176.513 315.577 175.793 315.577 C 174.959 315.577 174.279 315.484 173.753 315.297 C 173.226 315.104 172.813 314.814 172.513 314.427 C 172.219 314.047 172.016 313.57 171.903 312.997 C 171.789 312.43 171.733 311.77 171.733 311.017 L 171.733 305.837 L 169.383 305.837 L 169.383 304.177 L 171.733 304.177 L 171.733 301.057 L 173.703 300.727 ZM 186.091 303.917 C 187.591 303.917 188.751 304.384 189.571 305.317 C 190.384 306.257 190.791 307.677 190.791 309.577 L 190.791 310.277 L 182.821 310.277 C 182.901 311.43 183.281 312.307 183.961 312.907 C 184.641 313.507 185.597 313.807 186.831 313.807 C 187.537 313.807 188.137 313.75 188.631 313.637 C 189.124 313.524 189.501 313.404 189.761 313.277 L 190.021 314.957 C 189.781 315.084 189.351 315.22 188.731 315.367 C 188.104 315.507 187.397 315.577 186.611 315.577 C 185.651 315.577 184.807 315.43 184.081 315.137 C 183.354 314.844 182.751 314.44 182.271 313.927 C 181.791 313.414 181.431 312.8 181.191 312.087 C 180.951 311.374 180.831 310.604 180.831 309.777 C 180.831 308.784 180.984 307.917 181.291 307.177 C 181.591 306.444 181.991 305.837 182.491 305.357 C 182.984 304.877 183.544 304.517 184.171 304.277 C 184.791 304.037 185.431 303.917 186.091 303.917 Z M 182.871 308.667 L 188.771 308.667 C 188.771 307.727 188.524 306.98 188.031 306.427 C 187.537 305.874 186.881 305.597 186.061 305.597 C 185.601 305.597 185.181 305.684 184.801 305.857 C 184.427 306.037 184.104 306.27 183.831 306.557 C 183.557 306.844 183.341 307.17 183.181 307.537 C 183.021 307.91 182.917 308.287 182.871 308.667 ZM 204.847 315.317 L 204.847 304.497 C 205.807 304.124 206.714 303.937 207.567 303.937 C 208.027 303.937 208.46 304.007 208.867 304.147 C 209.28 304.28 209.63 304.49 209.917 304.777 C 210.604 304.217 211.34 303.937 212.127 303.937 C 212.507 303.937 212.87 304.01 213.217 304.157 C 213.557 304.304 213.86 304.52 214.127 304.807 C 214.394 305.094 214.607 305.454 214.767 305.887 C 214.927 306.32 215.007 306.824 215.007 307.397 L 215.007 315.317 L 213.207 315.317 L 213.207 307.347 C 213.207 306.774 213.077 306.334 212.817 306.027 C 212.564 305.727 212.244 305.577 211.857 305.577 C 211.664 305.577 211.464 305.624 211.257 305.717 C 211.05 305.81 210.86 305.964 210.687 306.177 C 210.78 306.544 210.827 306.95 210.827 307.397 L 210.827 311.017 L 209.027 311.017 L 209.027 307.377 C 209.027 306.817 208.94 306.377 208.767 306.057 C 208.587 305.737 208.24 305.577 207.727 305.577 C 207.407 305.577 207.047 305.647 206.647 305.787 L 206.647 315.317 L 204.847 315.317 ZM 221.985 313.897 C 222.479 313.897 222.922 313.884 223.315 313.857 C 223.709 313.824 224.032 313.784 224.285 313.737 L 224.285 310.417 C 224.032 310.337 223.725 310.274 223.365 310.227 C 223.005 310.18 222.625 310.157 222.225 310.157 C 221.859 310.157 221.499 310.184 221.145 310.237 C 220.792 310.297 220.479 310.397 220.205 310.537 C 219.939 310.684 219.715 310.874 219.535 311.107 C 219.362 311.34 219.275 311.63 219.275 311.977 C 219.275 312.697 219.519 313.197 220.005 313.477 C 220.492 313.757 221.152 313.897 221.985 313.897 Z M 221.795 303.917 C 222.629 303.917 223.329 304.02 223.895 304.227 C 224.462 304.434 224.922 304.724 225.275 305.097 C 225.629 305.464 225.875 305.91 226.015 306.437 C 226.162 306.964 226.235 307.54 226.235 308.167 L 226.235 315.127 C 225.769 315.207 225.155 315.304 224.395 315.417 C 223.635 315.524 222.855 315.577 222.055 315.577 C 221.449 315.577 220.859 315.527 220.285 315.427 C 219.705 315.32 219.192 315.137 218.745 314.877 C 218.299 314.61 217.939 314.244 217.665 313.777 C 217.392 313.317 217.255 312.727 217.255 312.007 C 217.255 311.367 217.395 310.827 217.675 310.387 C 217.955 309.947 218.315 309.59 218.755 309.317 C 219.195 309.044 219.699 308.847 220.265 308.727 C 220.839 308.607 221.412 308.547 221.985 308.547 C 222.772 308.547 223.539 308.637 224.285 308.817 L 224.285 308.257 C 224.285 307.924 224.252 307.6 224.185 307.287 C 224.112 306.974 223.975 306.69 223.775 306.437 C 223.575 306.184 223.302 305.98 222.955 305.827 C 222.615 305.674 222.172 305.597 221.625 305.597 C 220.939 305.597 220.339 305.644 219.825 305.737 C 219.312 305.837 218.919 305.934 218.645 306.027 L 218.405 304.397 C 218.679 304.27 219.132 304.157 219.765 304.057 C 220.399 303.964 221.075 303.917 221.795 303.917 ZM 229.043 309.777 C 229.043 308.764 229.203 307.89 229.523 307.157 C 229.843 306.424 230.283 305.817 230.843 305.337 C 231.403 304.857 232.053 304.5 232.793 304.267 C 233.54 304.034 234.337 303.917 235.183 303.917 C 235.73 303.917 236.27 303.954 236.803 304.027 C 237.337 304.1 237.91 304.23 238.523 304.417 L 238.063 306.127 C 237.537 305.934 237.053 305.81 236.613 305.757 C 236.173 305.697 235.73 305.667 235.283 305.667 C 234.703 305.667 234.157 305.744 233.643 305.897 C 233.137 306.05 232.693 306.29 232.313 306.617 C 231.94 306.944 231.64 307.367 231.413 307.887 C 231.193 308.407 231.083 309.037 231.083 309.777 C 231.083 310.477 231.187 311.08 231.393 311.587 C 231.6 312.087 231.89 312.504 232.263 312.837 C 232.643 313.164 233.097 313.407 233.623 313.567 C 234.15 313.727 234.733 313.807 235.373 313.807 C 235.887 313.807 236.38 313.777 236.853 313.717 C 237.327 313.664 237.843 313.54 238.403 313.347 L 238.683 315.007 C 238.123 315.214 237.557 315.36 236.983 315.447 C 236.41 315.534 235.787 315.577 235.113 315.577 C 234.213 315.577 233.393 315.454 232.653 315.207 C 231.907 314.96 231.267 314.597 230.733 314.117 C 230.193 313.637 229.777 313.034 229.483 312.307 C 229.19 311.58 229.043 310.737 229.043 309.777 ZM 243.561 315.317 L 241.561 315.317 L 241.561 299.017 L 243.561 298.687 L 243.561 304.347 C 243.881 304.22 244.241 304.12 244.641 304.047 C 245.041 303.974 245.431 303.937 245.811 303.937 C 246.658 303.937 247.368 304.064 247.941 304.317 C 248.508 304.564 248.958 304.91 249.291 305.357 C 249.631 305.804 249.871 306.34 250.011 306.967 C 250.158 307.587 250.231 308.274 250.231 309.027 L 250.231 315.317 L 248.261 315.317 L 248.261 309.457 C 248.261 308.084 248.068 307.114 247.681 306.547 C 247.301 305.98 246.615 305.697 245.621 305.697 C 245.208 305.697 244.805 305.74 244.411 305.827 C 244.018 305.914 243.735 305.997 243.561 306.077 L 243.561 315.317 ZM 256.88 302.457 C 256.46 302.457 256.1 302.31 255.8 302.017 C 255.493 301.73 255.34 301.34 255.34 300.847 C 255.34 300.347 255.493 299.954 255.8 299.667 C 256.1 299.38 256.46 299.237 256.88 299.237 C 257.306 299.237 257.67 299.38 257.97 299.667 C 258.263 299.954 258.41 300.347 258.41 300.847 C 258.41 301.34 258.263 301.73 257.97 302.017 C 257.67 302.31 257.306 302.457 256.88 302.457 Z M 256.37 311.017 L 256.37 305.837 L 253.16 305.837 L 253.16 304.177 L 258.34 304.177 L 258.34 311.017 C 258.34 312.124 258.493 312.864 258.8 313.237 C 259.1 313.617 259.553 313.807 260.16 313.807 C 260.626 313.807 261.056 313.75 261.45 313.637 C 261.843 313.524 262.15 313.404 262.37 313.277 L 262.66 314.957 C 262.566 315.004 262.43 315.064 262.25 315.137 C 262.076 315.21 261.873 315.277 261.64 315.337 C 261.406 315.404 261.15 315.46 260.87 315.507 C 260.59 315.554 260.3 315.577 260 315.577 C 259.293 315.577 258.706 315.484 258.24 315.297 C 257.78 315.104 257.41 314.814 257.13 314.427 C 256.85 314.047 256.653 313.57 256.54 312.997 C 256.426 312.43 256.37 311.77 256.37 311.017 ZM 265.558 315.317 L 265.558 304.497 C 266.278 304.317 266.994 304.18 267.708 304.087 C 268.421 303.987 269.091 303.937 269.718 303.937 C 271.204 303.937 272.328 304.324 273.088 305.097 C 273.848 305.864 274.228 307.094 274.228 308.787 L 274.228 315.317 L 272.258 315.317 L 272.258 309.147 C 272.258 308.427 272.194 307.844 272.068 307.397 C 271.941 306.95 271.761 306.604 271.528 306.357 C 271.294 306.104 271.014 305.93 270.688 305.837 C 270.361 305.744 270.004 305.697 269.618 305.697 C 269.298 305.697 268.958 305.717 268.598 305.757 C 268.238 305.797 267.891 305.847 267.558 305.907 L 267.558 315.317 L 265.558 315.317 ZM 282.076 303.917 C 283.576 303.917 284.736 304.384 285.556 305.317 C 286.369 306.257 286.776 307.677 286.776 309.577 L 286.776 310.277 L 278.806 310.277 C 278.886 311.43 279.266 312.307 279.946 312.907 C 280.626 313.507 281.583 313.807 282.816 313.807 C 283.523 313.807 284.123 313.75 284.616 313.637 C 285.109 313.524 285.486 313.404 285.746 313.277 L 286.006 314.957 C 285.766 315.084 285.336 315.22 284.716 315.367 C 284.089 315.507 283.383 315.577 282.596 315.577 C 281.636 315.577 280.793 315.43 280.066 315.137 C 279.339 314.844 278.736 314.44 278.256 313.927 C 277.776 313.414 277.416 312.8 277.176 312.087 C 276.936 311.374 276.816 310.604 276.816 309.777 C 276.816 308.784 276.969 307.917 277.276 307.177 C 277.576 306.444 277.976 305.837 278.476 305.357 C 278.969 304.877 279.529 304.517 280.156 304.277 C 280.776 304.037 281.416 303.917 282.076 303.917 Z M 278.856 308.667 L 284.756 308.667 C 284.756 307.727 284.509 306.98 284.016 306.427 C 283.523 305.874 282.866 305.597 282.046 305.597 C 281.586 305.597 281.166 305.684 280.786 305.857 C 280.413 306.037 280.089 306.27 279.816 306.557 C 279.543 306.844 279.326 307.17 279.166 307.537 C 279.006 307.91 278.903 308.287 278.856 308.667 Z" transform="matrix(1, 0, 0, 1, 134.75100708007812, -41.527042388916016)" style="fill: rgb(51, 51, 51); white-space: pre;"/>
</svg>